<svg width="160" height="160" viewBox="0 0 160 160" fill="none" xmlns="http://www.w3.org/2000/svg">
<path d="M130 160H30C13.43 160 0 146.57 0 130V30C0 13.43 13.43 0 30 0H130C146.57 0 160 13.43 160 30V130C160 146.57 146.57 160 130 160Z" fill="#ECFBFE"/>
<path d="M110 49.165V75.7L103.335 79.2V49.165C103.335 47.33 101.835 45.83 100 45.83H60C58.165 45.83 56.665 47.33 56.665 49.165V79.2L50 75.7V49.165C50 43.665 54.5 39.165 60 39.165H100C105.5 39.165 110 43.665 110 49.165Z" fill="#3DD3F5"/>
<path d="M56.665 79.2002V84.1652C56.665 86.0002 55.165 87.5002 53.33 87.5002C51.5 87.5002 50 86.0002 50 84.1652V75.7002L56.665 79.2002Z" fill="#8CE1EB"/>
<path d="M110 75.7002V84.1652C110 86.0002 108.5 87.5002 106.665 87.5002C104.83 87.5002 103.33 86.0002 103.33 84.1652V79.2002L110 75.7002Z" fill="#8CE1EB"/>
<path d="M120 69.7999V105.835C120 111.335 115.5 115.835 110 115.835H50C44.5 115.835 40 111.335 40 105.835V69.7999C40 66.1349 42 62.7649 45.2 60.9999L50 58.3999V65.9999L48.4 66.8649C47.335 67.4299 46.665 68.5649 46.665 69.7999V73.9649L50 75.6999L56.665 79.1999L78.065 90.3649C79.265 90.9649 80.73 90.9649 81.965 90.3299L103.33 79.1949L110 75.6999L113.335 73.9649V69.7999C113.335 68.5649 112.67 67.4349 111.6 66.8649L110 65.9999V58.3999L114.8 60.9999C118 62.7649 120 66.1349 120 69.7999Z" fill="#80E3F8"/>
</svg>
