<svg width="160" height="160" viewBox="0 0 160 160" fill="none" xmlns="http://www.w3.org/2000/svg">
<path d="M130 160H30C13.43 160 0 146.57 0 130V30C0 13.43 13.43 0 30 0H130C146.57 0 160 13.43 160 30V130C160 146.57 146.57 160 130 160Z" fill="#E3F8FA"/>
<path d="M130 160H30C13.43 160 0 146.57 0 130V30C0 13.43 13.43 0 30 0H130C146.57 0 160 13.43 160 30V130C160 146.57 146.57 160 130 160Z" fill="#ECFBFE"/>
<path d="M111.875 59.165H110.21V75C110.21 82.815 103.855 89.165 96.0451 89.165H56.8801V96.665C56.8801 101.72 60.9901 105.83 66.0451 105.83H70.2101V113.33C70.2101 114.36 70.8401 115.285 71.8051 115.66C72.1001 115.775 72.4051 115.83 72.7101 115.83C73.3951 115.83 74.0701 115.545 74.5501 115.02L82.9751 105.83H111.875C116.93 105.83 121.04 101.72 121.04 96.665V68.33C121.04 63.28 116.93 59.165 111.875 59.165Z" fill="#3DD3F5"/>
<path d="M96.04 39.165H47.71C43.575 39.165 40.21 42.53 40.21 46.665V75C40.21 79.135 43.575 82.5 47.71 82.5H96.045C100.18 82.5 103.545 79.135 103.545 75V46.665C103.54 42.53 100.175 39.165 96.04 39.165ZM96.875 53.965L74.41 64.865C73.61 65.265 72.745 65.465 71.875 65.465C71.005 65.465 70.14 65.265 69.34 64.865L46.875 53.965V48.435L71.51 60.37C71.745 60.505 72.01 60.505 72.245 60.37L96.88 48.435V53.965H96.875Z" fill="#80E3F8"/>
</svg>
